<?xml version="1.0" ?><svg height="21px" version="1.1" viewBox="0 0 21 21" width="21px" xmlns="http://www.w3.org/2000/svg" xmlns:sketch="http://www.bohemiancoding.com/sketch/ns" xmlns:xlink="http://www.w3.org/1999/xlink"><title/><defs><path d="M0.311172497,0 C0.139316672,0 0,0.134101867 0,0.313155636 L0,20.6868444 C0,20.8597955 0.134101867,21 0.313155636,21 L20.6868444,21 C20.8597955,21 21,20.8591347 21,20.6888275 L21,3.5 L17.5,0 L0.311172497,0 L0.311172497,0 Z M1,1 L1,20 L20,20 L20,3.8500061 L17.1500244,1 L1,1 L1,1 Z M16,13 L5,13 L5,19 L4,19 L4,12 L17,12 L17,19 L16,19 L16,13 Z M14,6.07958984 L7,6.07958984 L7,2.00000002 L6,2 L6,7 L15,7 L15,2.00000002 L14,2.00000002 L14,6.07958984 Z M12,2 L12,4 L13,4 L13,2 L12,2 L12,2 Z" id="path-1"/></defs><g fill="none" fill-rule="evenodd" id="miu" stroke="none" stroke-width="1"><g id="editor_floopy-dish_save_outline_stroke"><use fill="#000000" fill-rule="evenodd" xlink:href="#path-1"/><use fill="none" xlink:href="#path-1"/></g></g></svg>