<?xml version="1.0" standalone="no"?>
<!DOCTYPE svg PUBLIC "-//W3C//DTD SVG 20010904//EN"
 "http://www.w3.org/TR/2001/REC-SVG-20010904/DTD/svg10.dtd">
<svg version="1.0" xmlns="http://www.w3.org/2000/svg"
 width="225.000000pt" height="225.000000pt" viewBox="0 0 225.000000 225.000000"
 preserveAspectRatio="xMidYMid meet">
<metadata>
Created by potrace 1.12, written by Peter Selinger 2001-2015
</metadata>
<g transform="translate(0.000000,225.000000) scale(0.100000,-0.100000)"
fill="#000000" stroke="none">
<path d="M1004 2240 c-133 -24 -262 -91 -359 -185 -77 -74 -128 -153 -168
-259 -30 -77 -32 -88 -32 -231 0 -138 2 -156 27 -223 74 -205 226 -355 427
-425 173 -61 369 -46 541 40 111 56 233 180 289 293 56 115 74 194 74 315 0
122 -19 201 -75 315 -81 162 -248 297 -428 345 -69 19 -229 27 -296 15z m366
-600 l135 0 -113 -75 c-61 -41 -112 -79 -112 -84 0 -5 23 -69 50 -142 28 -73
49 -136 48 -140 -2 -5 -58 28 -125 71 -67 44 -127 80 -133 80 -6 0 -65 -36
-131 -81 -66 -44 -123 -79 -125 -76 -4 3 41 130 94 269 10 25 8 28 -100 100
l-112 73 131 3 130 3 43 117 c24 64 50 133 58 152 l14 35 57 -152 56 -153 135
0z"/>
<path d="M530 608 c-73 -189 -141 -364 -151 -391 l-19 -47 33 14 c17 7 70 30
117 51 47 20 99 42 116 50 l31 13 63 -144 c34 -80 65 -143 67 -140 3 2 71 179
153 393 l147 388 -91 17 c-124 22 -206 54 -302 118 l-31 20 -133 -342z"/>
<path d="M1540 920 c-87 -58 -182 -90 -361 -122 -14 -2 11 -74 131 -391 82
-214 150 -391 153 -393 2 -3 33 60 67 140 l63 144 31 -13 c17 -8 69 -30 116
-50 168 -73 151 -68 141 -43 -90 233 -292 753 -294 755 -2 1 -23 -11 -47 -27z"/>
</g>
</svg>
